# xmcd
#
# Track frame offsets: 
#        150
#        20374
#        46414
#        69234
#        90605
#        111351
#        130909
#        151679
#        168642
#        187484
#        209745
#        229249
#        248678
#        268308
#        286316
#
# Disc length: 4085 seconds
#
# Revision: 3
# Processed by: cddbd v1.5.2PL0 Copyright (c) Steve Scherf et al.
# Submitted via: ExactAudioCopyFreeDBPlugin 1.0
#
DISCID=df0ff30f
DTITLE=龚玥 - DTSES民歌红I
DYEAR=2007
DGENRE=DTSES
TTITLE0=常回家看看
TTITLE1=十送红军
TTITLE2=天路
TTITLE3=月亮走我也走
TTITLE4=为了谁
TTITLE5=美丽的草原我的家
TTITLE6=月亮之上
TTITLE7=牧羊曲
TTITLE8=莫愁啊莫愁
TTITLE9=母亲
TTITLE10=小白杨
TTITLE11=父亲
TTITLE12=遇上你是我的缘
TTITLE13=月儿弯弯照九州
TTITLE14=月光下的凤尾竹
EXTD=
EXTT0=
EXTT1=
EXTT2=
EXTT3=
EXTT4=
EXTT5=
EXTT6=
EXTT7=
EXTT8=
EXTT9=
EXTT10=
EXTT11=
EXTT12=
EXTT13=
EXTT14=
PLAYORDER=
